<svg width="24" height="23" viewBox="0 0 24 23" fill="none" xmlns="http://www.w3.org/2000/svg">
<path d="M12 0C13.0557 0 14.0739 0.134766 15.0547 0.404297C16.0355 0.673828 16.9489 1.06315 17.7949 1.57227C18.641 2.08138 19.4159 2.68034 20.1196 3.36914C20.8234 4.05794 21.4261 4.83285 21.9277 5.69385C22.4294 6.55485 22.8149 7.47201 23.0845 8.44531C23.354 9.41862 23.4925 10.4368 23.5 11.5C23.5 12.5557 23.3652 13.5739 23.0957 14.5547C22.8262 15.5355 22.4368 16.4489 21.9277 17.2949C21.4186 18.141 20.8197 18.9159 20.1309 19.6196C19.4421 20.3234 18.6672 20.9261 17.8062 21.4277C16.9452 21.9294 16.028 22.3149 15.0547 22.5845C14.0814 22.854 13.0632 22.9925 12 23C10.9443 23 9.92611 22.8652 8.94531 22.5957C7.96452 22.3262 7.05111 21.9368 6.20508 21.4277C5.35905 20.9186 4.58415 20.3197 3.88037 19.6309C3.17659 18.9421 2.57389 18.1672 2.07227 17.3062C1.57064 16.4452 1.18506 15.528 0.915527 14.5547C0.645996 13.5814 0.507487 12.5632 0.5 11.5C0.5 10.4443 0.634766 9.42611 0.904297 8.44531C1.17383 7.46452 1.56315 6.55111 2.07227 5.70508C2.58138 4.85905 3.18034 4.08415 3.86914 3.38037C4.55794 2.67659 5.33285 2.07389 6.19385 1.57227C7.05485 1.07064 7.97201 0.685059 8.94531 0.415527C9.91862 0.145996 10.9368 0.00748698 12 0ZM13.269 11.5L17.1099 7.65918L15.8408 6.39014L12 10.231L8.15918 6.39014L6.89014 7.65918L10.731 11.5L6.89014 15.3408L8.15918 16.6099L12 12.769L15.8408 16.6099L17.1099 15.3408L13.269 11.5Z" fill="white"/>
</svg>
