<svg width="24" height="23" viewBox="0 0 24 23" fill="none" xmlns="http://www.w3.org/2000/svg">
<path d="M12 0C15.05 0 17.9751 1.2116 20.1317 3.36827C22.2884 5.52494 23.5 8.45001 23.5 11.5C23.5 14.55 22.2884 17.4751 20.1317 19.6317C17.9751 21.7884 15.05 23 12 23C8.95001 23 6.02494 21.7884 3.86827 19.6317C1.7116 17.4751 0.5 14.55 0.5 11.5C0.5 8.45001 1.7116 5.52494 3.86827 3.36827C6.02494 1.2116 8.95001 0 12 0ZM10.5674 13.7688L8.01279 11.2125C7.9212 11.1209 7.81248 11.0483 7.69282 10.9987C7.57316 10.9491 7.44491 10.9236 7.31539 10.9236C7.18588 10.9236 7.05763 10.9491 6.93797 10.9987C6.81831 11.0483 6.70958 11.1209 6.618 11.2125C6.43304 11.3975 6.32913 11.6483 6.32913 11.9099C6.32913 12.1715 6.43304 12.4223 6.618 12.6073L9.87086 15.8601C9.96218 15.9522 10.0708 16.0252 10.1905 16.0751C10.3102 16.1249 10.4386 16.1506 10.5683 16.1506C10.6979 16.1506 10.8263 16.1249 10.946 16.0751C11.0657 16.0252 11.1743 15.9522 11.2656 15.8601L18.0014 9.12279C18.0942 9.03158 18.168 8.92291 18.2186 8.80303C18.2692 8.68315 18.2955 8.55444 18.2962 8.42432C18.2968 8.2942 18.2716 8.16525 18.2221 8.04491C18.1726 7.92456 18.0998 7.8152 18.0079 7.72314C17.9159 7.63108 17.8066 7.55813 17.6864 7.50851C17.5661 7.45889 17.4371 7.43358 17.307 7.43403C17.1769 7.43448 17.0482 7.46069 16.9282 7.51114C16.8083 7.5616 16.6995 7.6353 16.6082 7.728L10.5674 13.7688Z" fill="white"/>
</svg>
