<svg width="20" height="20" viewBox="0 0 20 20" fill="none" xmlns="http://www.w3.org/2000/svg">
<path d="M1 17.779V17.7778V2.22222C1 1.87869 1.11075 1.60903 1.36044 1.35933C1.6101 1.10967 1.879 0.999586 2.22101 1H2.22222H7.88889V19H2.22222C1.87869 19 1.60903 18.8893 1.35933 18.6396C1.10967 18.3899 0.999586 18.121 1 17.779ZM17.779 19H17.7778H12.1111V11H19V17.7778C19 18.1213 18.8893 18.391 18.6396 18.6407C18.3899 18.8903 18.121 19.0004 17.779 19ZM18.6407 1.36044L19.3455 0.655614L18.6407 1.36044C18.8903 1.6101 19.0004 1.879 19 2.22101V2.22222V6.77778H12.1111V1H17.7778C18.1213 1 18.391 1.11075 18.6407 1.36044Z" stroke="#8B8B8B" stroke-width="2"/>
</svg>
