<svg width="21" height="22" viewBox="0 0 21 22" fill="none" xmlns="http://www.w3.org/2000/svg">
<path d="M20.4651 18.4186H0V16.3721H1.02326V9.24102C1.02326 4.13702 5.14698 0 10.2326 0C15.3181 0 19.4419 4.13702 19.4419 9.24102V16.3721H20.4651V18.4186ZM3.06977 16.3721H17.3953V9.24102C17.3953 5.26772 14.1885 2.04651 10.2326 2.04651C6.27665 2.04651 3.06977 5.26772 3.06977 9.24102V16.3721ZM7.67442 19.4419H12.7907C12.7907 20.1203 12.5212 20.771 12.0414 21.2507C11.5617 21.7305 10.911 22 10.2326 22C9.5541 22 8.90342 21.7305 8.42368 21.2507C7.94394 20.771 7.67442 20.1203 7.67442 19.4419Z" fill="#8B8B8B"/>
</svg>
