<svg width="23" height="24" viewBox="0 0 23 24" fill="none" xmlns="http://www.w3.org/2000/svg">
<path d="M16.4211 1.26654e-07C17.0584 -0.000201574 17.6723 0.240513 18.1396 0.673891C18.607 1.10727 18.8933 1.70128 18.9411 2.33684L18.9474 2.52632V8.8421H20.8421C21.3131 8.84213 21.7672 9.01758 22.1159 9.33426C22.4646 9.65093 22.6828 10.0861 22.728 10.5549L22.7368 10.7368V20.2105C22.7369 21.1771 22.3676 22.1072 21.7045 22.8104C21.0414 23.5137 20.1346 23.937 19.1697 23.9937L18.9474 24H2.52632C1.88896 24.0002 1.27507 23.7595 0.807729 23.3261C0.340384 22.8927 0.054118 22.2987 0.00631606 21.6632L1.26654e-07 21.4737V2.52632C-0.000201574 1.88896 0.240513 1.27507 0.673891 0.807729C1.10727 0.340384 1.70128 0.054118 2.33684 0.00631606L2.52632 1.26654e-07H16.4211ZM20.2105 11.3684H18.9474V21.4737C19.2824 21.4737 19.6037 21.3406 19.8406 21.1037C20.0774 20.8668 20.2105 20.5455 20.2105 20.2105V11.3684ZM16.4211 2.52632H2.52632V21.4737H16.4211V2.52632ZM10.1053 12.6316C10.4272 12.6319 10.7369 12.7552 10.971 12.9762C11.2051 13.1972 11.346 13.4993 11.3648 13.8207C11.3837 14.1421 11.2791 14.4586 11.0725 14.7055C10.8659 14.9524 10.5728 15.111 10.2531 15.1491L10.1053 15.1579H6.31579C5.99384 15.1575 5.68417 15.0343 5.45006 14.8132C5.21595 14.5922 5.07507 14.2902 5.0562 13.9688C5.03734 13.6474 5.1419 13.3309 5.34855 13.084C5.55519 12.8371 5.8483 12.6784 6.168 12.6404L6.31579 12.6316H10.1053ZM12.6316 6.31579C12.9666 6.31579 13.2879 6.44887 13.5248 6.68576C13.7617 6.92265 13.8947 7.24394 13.8947 7.57895C13.8947 7.91396 13.7617 8.23525 13.5248 8.47213C13.2879 8.70902 12.9666 8.8421 12.6316 8.8421H6.31579C5.98078 8.8421 5.65949 8.70902 5.4226 8.47213C5.18571 8.23525 5.05263 7.91396 5.05263 7.57895C5.05263 7.24394 5.18571 6.92265 5.4226 6.68576C5.65949 6.44887 5.98078 6.31579 6.31579 6.31579H12.6316Z" fill="#8B8B8B"/>
</svg>
