<svg width="26" height="22" viewBox="0 0 26 22" fill="none" xmlns="http://www.w3.org/2000/svg">
<path d="M25 21C25 18.6773 22.7733 16.7027 19.6667 15.9693M17 21C17 18.0533 13.4187 15.6667 9 15.6667C4.58133 15.6667 1 18.0533 1 21M17 11.6667C18.4145 11.6667 19.771 11.1048 20.7712 10.1046C21.7714 9.10438 22.3333 7.74782 22.3333 6.33333C22.3333 4.91885 21.7714 3.56229 20.7712 2.5621C19.771 1.5619 18.4145 1 17 1M9 11.6667C7.58551 11.6667 6.22896 11.1048 5.22876 10.1046C4.22857 9.10438 3.66667 7.74782 3.66667 6.33333C3.66667 4.91885 4.22857 3.56229 5.22876 2.5621C6.22896 1.5619 7.58551 1 9 1C10.4145 1 11.771 1.5619 12.7712 2.5621C13.7714 3.56229 14.3333 4.91885 14.3333 6.33333C14.3333 7.74782 13.7714 9.10438 12.7712 10.1046C11.771 11.1048 10.4145 11.6667 9 11.6667Z" stroke="#8B8B8B" stroke-width="2" stroke-linecap="round" stroke-linejoin="round"/>
</svg>
