<svg width="26" height="28" viewBox="0 0 26 28" fill="none" xmlns="http://www.w3.org/2000/svg">
<path d="M24.7625 5.502L13.0224 0.0835133C12.9036 0.0284967 12.7741 0 12.6431 0C12.5122 0 12.3827 0.0284967 12.2638 0.0835133L0.52379 5.502C0.367033 5.57455 0.234369 5.69053 0.141531 5.83619C0.0486931 5.98185 -0.000424651 6.15108 2.7659e-06 6.32381V21.6762C-0.000424651 21.8489 0.0486931 22.0182 0.141531 22.1638C0.234369 22.3095 0.367033 22.4255 0.52379 22.498L12.2638 27.9165C12.3827 27.9715 12.5122 28 12.6431 28C12.7741 28 12.9036 27.9715 13.0224 27.9165L24.7625 22.498C24.9193 22.4255 25.0519 22.3095 25.1448 22.1638C25.2376 22.0182 25.2867 21.8489 25.2863 21.6762V6.32381C25.2867 6.15108 25.2376 5.98185 25.1448 5.83619C25.0519 5.69053 24.9193 5.57455 24.7625 5.502ZM12.6431 1.89871L22.2248 6.32381L12.6431 10.7489L3.06145 6.32381L12.6431 1.89871ZM1.80617 7.73261L11.7401 12.3203V25.6859L1.80617 21.0982V7.73261ZM13.5462 25.6859V12.3203L23.4801 7.73261V21.0982L13.5462 25.6859Z" fill="#8B8B8B"/>
</svg>
