<svg width="22" height="22" viewBox="0 0 22 22" fill="none" xmlns="http://www.w3.org/2000/svg">
<path d="M13.8046 7.06802L14.0478 7.60636L14.6367 7.65314L20.9073 8.15133C20.927 8.15291 20.9458 8.16022 20.9614 8.17235L21.5629 7.39985L20.9614 8.17236C20.977 8.18449 20.9886 8.2009 20.995 8.21955L21.9419 7.89802L20.9944 8.21803C21.0077 8.25732 20.9966 8.29939 20.9663 8.32679C20.9662 8.32683 20.9662 8.32686 20.9662 8.32689L15.9775 12.8156L15.5133 13.2333L15.6849 13.8338L17.696 20.8699C17.6961 20.8701 17.6961 20.8703 17.6962 20.8705C17.7016 20.8902 17.7009 20.911 17.6943 20.9302C17.6875 20.9497 17.675 20.9666 17.6583 20.9788C17.6416 20.991 17.6216 20.9978 17.6009 20.9982C17.5804 20.9987 17.5602 20.9929 17.5431 20.9816C17.543 20.9815 17.5428 20.9814 17.5427 20.9813L11.5547 16.9899L11.0001 16.6202L10.4454 16.9899L4.45591 20.9824L4.45481 20.9831C4.43814 20.9943 4.4185 21.0002 4.39842 21C4.37833 20.9998 4.35877 20.9937 4.34228 20.9823C4.32578 20.9709 4.31311 20.9548 4.30589 20.9361C4.29868 20.9175 4.29723 20.8971 4.30174 20.8776L4.3019 20.877L5.94091 13.7807L6.06755 13.2324L5.66455 12.8396L1.03022 8.32246L1.03016 8.32239C1.0164 8.30899 1.00682 8.29193 1.00253 8.27326C0.998242 8.25458 0.999423 8.23507 1.00594 8.21704C1.01245 8.19901 1.02403 8.18323 1.03931 8.17158C1.05458 8.15993 1.07291 8.15291 1.0921 8.15139L1.09233 8.15137L7.36347 7.65314L7.95239 7.60635L8.1956 7.06796L10.9093 1.06055L10.9106 1.05778C10.9183 1.04059 10.9308 1.02597 10.9466 1.01571L10.4108 0.187818L10.9466 1.01571C10.9625 1.00545 10.981 0.99999 10.9999 1C11.0188 1.00001 11.0373 1.00549 11.0531 1.01577L11.5974 0.176884L11.0531 1.01577C11.069 1.02605 11.0815 1.04068 11.0892 1.05788L11.0892 1.05788L11.0909 1.06172L13.8046 7.06802Z" stroke="#8B8B8B" stroke-width="2"/>
</svg>
